<svg xmlns="http://www.w3.org/2000/svg" style="cursor: move;" width="1832" height="921"><g transform="translate(-934.7390205656279,-573.0100097070507) scale(2.073402202039441)"><path class="link" style="stroke-width: 1.45px; stroke-opacity: 0.6; stroke: rgb(80, 80, 80); fill: none;" marker-end="" d="M784,410.5, 903,450.5"></path><path class="link" style="stroke-width: 1.45px; stroke-opacity: 0.6; stroke: rgb(80, 80, 80); fill: none;" marker-end="" d="M784,450.5, 903,450.5"></path><path class="link" style="stroke-width: 1.45px; stroke-opacity: 0.6; stroke: rgb(80, 80, 80); fill: none;" marker-end="" d="M784,490.5, 903,450.5"></path><path class="link" style="stroke-width: 1.45px; stroke-opacity: 0.6; stroke: rgb(80, 80, 80); fill: none;" marker-end="" d="M784,410.5, 903,490.5"></path><path class="link" style="stroke-width: 1.45px; stroke-opacity: 0.6; stroke: rgb(80, 80, 80); fill: none;" marker-end="" d="M784,450.5, 903,490.5"></path><path class="link" style="stroke-width: 1.45px; stroke-opacity: 0.6; stroke: rgb(80, 80, 80); fill: none;" marker-end="" d="M784,490.5, 903,490.5"></path><path class="link" style="stroke-width: 1.45px; stroke-opacity: 0.6; stroke: rgb(80, 80, 80); fill: none;" marker-end="" d="M903,410.5, 1022,470.5"></path><path class="link" style="stroke-width: 1.45px; stroke-opacity: 0.6; stroke: rgb(80, 80, 80); fill: none;" marker-end="" d="M903,450.5, 1022,470.5"></path><path class="link" style="stroke-width: 1.45px; stroke-opacity: 0.6; stroke: rgb(80, 80, 80); fill: none;" marker-end="" d="M903,490.5, 1022,470.5"></path><path class="link" style="stroke-width: 1.45px; stroke-opacity: 0.6; stroke: rgb(80, 80, 80); fill: none;" marker-end="" d="M1022,430.5, 1141,450.5"></path><path class="link" style="stroke-width: 1.45px; stroke-opacity: 0.6; stroke: rgb(80, 80, 80); fill: none;" marker-end="" d="M1022,470.5, 1141,450.5"></path><path class="link" style="stroke-width: 1.45px; stroke-opacity: 0.6; stroke: rgb(80, 80, 80); fill: none;" marker-end="" d="M784,410.5, 903,410.5"></path><path class="link" style="stroke-width: 1.45px; stroke-opacity: 0.6; stroke: rgb(80, 80, 80); fill: none;" marker-end="" d="M784,450.5, 903,410.5"></path><path class="link" style="stroke-width: 1.45px; stroke-opacity: 0.6; stroke: rgb(80, 80, 80); fill: none;" marker-end="" d="M784,490.5, 903,410.5"></path><path class="link" style="stroke-width: 1.45px; stroke-opacity: 0.6; stroke: rgb(80, 80, 80); fill: none;" marker-end="" d="M903,410.5, 1022,430.5"></path><path class="link" style="stroke-width: 1.45px; stroke-opacity: 0.6; stroke: rgb(80, 80, 80); fill: none;" marker-end="" d="M903,450.5, 1022,430.5"></path><path class="link" style="stroke-width: 1.45px; stroke-opacity: 0.6; stroke: rgb(80, 80, 80); fill: none;" marker-end="" d="M903,490.5, 1022,430.5"></path><circle r="10" class="node" id="0_0" style="fill: rgb(255, 255, 255); stroke: rgb(51, 51, 51);" cx="784" cy="410.5"></circle><circle r="10" class="node" id="0_1" style="fill: rgb(255, 255, 255); stroke: rgb(51, 51, 51);" cx="784" cy="450.5"></circle><circle r="10" class="node" id="0_2" style="fill: rgb(255, 255, 255); stroke: rgb(51, 51, 51);" cx="784" cy="490.5"></circle><circle r="10" class="node" id="1_0" style="fill: rgb(255, 255, 255); stroke: rgb(51, 51, 51);" cx="903" cy="410.5"></circle><text class="text" dy=".35em" style="font-size: 12px;" x="749" y="530.5">Input Layer ∈ ℝ³</text><text class="text" dy=".35em" style="font-size: 12px;" x="868" y="530.5">Hidden Layer ∈ ℝ³</text><circle r="10" class="node" id="1_1" style="fill: rgb(255, 255, 255); stroke: rgb(51, 51, 51);" cx="903" cy="450.5"></circle><circle r="10" class="node" id="1_2" style="fill: rgb(255, 255, 255); stroke: rgb(51, 51, 51);" cx="903" cy="490.5"></circle><circle r="10" class="node" id="2_0" style="fill: rgb(255, 255, 255); stroke: rgb(51, 51, 51);" cx="1022" cy="430.5"></circle><text class="text" dy=".35em" style="font-size: 12px;" x="987" y="530.5">Hidden Layer ∈ ℝ²</text><circle r="10" class="node" id="2_1" style="fill: rgb(255, 255, 255); stroke: rgb(51, 51, 51);" cx="1022" cy="470.5"></circle><circle r="10" class="node" id="3_0" style="fill: rgb(255, 255, 255); stroke: rgb(51, 51, 51);" cx="1141" cy="450.5"></circle><text class="text" dy=".35em" style="font-size: 12px;" x="1106" y="530.5">Output Layer ∈ ℝ¹</text></g><defs><marker id="arrow" viewBox="0 -5 10 10" markerWidth="7" markerHeight="7" orient="auto" refX="40"><path d="M0,-5L10,0L0,5" style="stroke: rgb(80, 80, 80); fill: none;"></path></marker></defs></svg>